<svg width="98" height="28" viewBox="0 0 98 28" fill="none" xmlns="http://www.w3.org/2000/svg">
<path d="M13.7285 1.40625V27H8.47266V1.40625H13.7285ZM21.6035 1.40625V5.53711H0.720703V1.40625H21.6035ZM20.4258 17.6836V17.3145C20.4258 15.9199 20.625 14.6367 21.0234 13.4648C21.4219 12.2812 22.002 11.2559 22.7637 10.3887C23.5254 9.52148 24.4629 8.84766 25.5762 8.36719C26.6895 7.875 27.9668 7.62891 29.4082 7.62891C30.8496 7.62891 32.1328 7.875 33.2578 8.36719C34.3828 8.84766 35.3262 9.52148 36.0879 10.3887C36.8613 11.2559 37.4473 12.2812 37.8457 13.4648C38.2441 14.6367 38.4434 15.9199 38.4434 17.3145V17.6836C38.4434 19.0664 38.2441 20.3496 37.8457 21.5332C37.4473 22.7051 36.8613 23.7305 36.0879 24.6094C35.3262 25.4766 34.3887 26.1504 33.2754 26.6309C32.1621 27.1113 30.8848 27.3516 29.4434 27.3516C28.002 27.3516 26.7188 27.1113 25.5938 26.6309C24.4805 26.1504 23.5371 25.4766 22.7637 24.6094C22.002 23.7305 21.4219 22.7051 21.0234 21.5332C20.625 20.3496 20.4258 19.0664 20.4258 17.6836ZM25.4883 17.3145V17.6836C25.4883 18.4805 25.5586 19.2246 25.6992 19.916C25.8398 20.6074 26.0625 21.2168 26.3672 21.7441C26.6836 22.2598 27.0938 22.6641 27.5977 22.957C28.1016 23.25 28.7168 23.3965 29.4434 23.3965C30.1465 23.3965 30.75 23.25 31.2539 22.957C31.7578 22.6641 32.1621 22.2598 32.4668 21.7441C32.7715 21.2168 32.9941 20.6074 33.1348 19.916C33.2871 19.2246 33.3633 18.4805 33.3633 17.6836V17.3145C33.3633 16.541 33.2871 15.8145 33.1348 15.1348C32.9941 14.4434 32.7656 13.834 32.4492 13.3066C32.1445 12.7676 31.7402 12.3457 31.2363 12.041C30.7324 11.7363 30.123 11.584 29.4082 11.584C28.6934 11.584 28.084 11.7363 27.5801 12.041C27.0879 12.3457 26.6836 12.7676 26.3672 13.3066C26.0625 13.834 25.8398 14.4434 25.6992 15.1348C25.5586 15.8145 25.4883 16.541 25.4883 17.3145ZM52.7871 22.8516V0H57.8848V27H53.2969L52.7871 22.8516ZM40.7637 17.7188V17.3496C40.7637 15.8965 40.9277 14.5781 41.2559 13.3945C41.584 12.1992 42.0645 11.1738 42.6973 10.3184C43.3301 9.46289 44.1094 8.80078 45.0352 8.33203C45.9609 7.86328 47.0156 7.62891 48.1992 7.62891C49.3125 7.62891 50.2852 7.86328 51.1172 8.33203C51.9609 8.80078 52.6758 9.46875 53.2617 10.3359C53.8594 11.1914 54.3398 12.2051 54.7031 13.377C55.0664 14.5371 55.3301 15.8086 55.4941 17.1914V18C55.3301 19.3242 55.0664 20.5547 54.7031 21.6914C54.3398 22.8281 53.8594 23.8242 53.2617 24.6797C52.6758 25.5234 51.9609 26.1797 51.1172 26.6484C50.2734 27.1172 49.2891 27.3516 48.1641 27.3516C46.9805 27.3516 45.9258 27.1113 45 26.6309C44.0859 26.1504 43.3125 25.4766 42.6797 24.6094C42.0586 23.7422 41.584 22.7227 41.2559 21.5508C40.9277 20.3789 40.7637 19.1016 40.7637 17.7188ZM45.8262 17.3496V17.7188C45.8262 18.5039 45.8848 19.2363 46.002 19.916C46.1309 20.5957 46.3359 21.1992 46.6172 21.7266C46.9102 22.2422 47.2852 22.6465 47.7422 22.9395C48.2109 23.2207 48.7793 23.3613 49.4473 23.3613C50.3145 23.3613 51.0293 23.168 51.5918 22.7812C52.1543 22.3828 52.582 21.8379 52.875 21.1465C53.1797 20.4551 53.3555 19.6582 53.4023 18.7559V16.4531C53.3672 15.7148 53.2617 15.0527 53.0859 14.4668C52.9219 13.8691 52.6758 13.3594 52.3477 12.9375C52.0312 12.5156 51.6328 12.1875 51.1523 11.9531C50.6836 11.7188 50.127 11.6016 49.4824 11.6016C48.8262 11.6016 48.2637 11.7539 47.7949 12.0586C47.3262 12.3516 46.9453 12.7559 46.6523 13.2715C46.3711 13.7871 46.1602 14.3965 46.0195 15.0996C45.8906 15.791 45.8262 16.541 45.8262 17.3496ZM61.0312 17.6836V17.3145C61.0312 15.9199 61.2305 14.6367 61.6289 13.4648C62.0273 12.2812 62.6074 11.2559 63.3691 10.3887C64.1309 9.52148 65.0684 8.84766 66.1816 8.36719C67.2949 7.875 68.5723 7.62891 70.0137 7.62891C71.4551 7.62891 72.7383 7.875 73.8633 8.36719C74.9883 8.84766 75.9316 9.52148 76.6934 10.3887C77.4668 11.2559 78.0527 12.2812 78.4512 13.4648C78.8496 14.6367 79.0488 15.9199 79.0488 17.3145V17.6836C79.0488 19.0664 78.8496 20.3496 78.4512 21.5332C78.0527 22.7051 77.4668 23.7305 76.6934 24.6094C75.9316 25.4766 74.9941 26.1504 73.8809 26.6309C72.7676 27.1113 71.4902 27.3516 70.0488 27.3516C68.6074 27.3516 67.3242 27.1113 66.1992 26.6309C65.0859 26.1504 64.1426 25.4766 63.3691 24.6094C62.6074 23.7305 62.0273 22.7051 61.6289 21.5332C61.2305 20.3496 61.0312 19.0664 61.0312 17.6836ZM66.0938 17.3145V17.6836C66.0938 18.4805 66.1641 19.2246 66.3047 19.916C66.4453 20.6074 66.668 21.2168 66.9727 21.7441C67.2891 22.2598 67.6992 22.6641 68.2031 22.957C68.707 23.25 69.3223 23.3965 70.0488 23.3965C70.752 23.3965 71.3555 23.25 71.8594 22.957C72.3633 22.6641 72.7676 22.2598 73.0723 21.7441C73.377 21.2168 73.5996 20.6074 73.7402 19.916C73.8926 19.2246 73.9688 18.4805 73.9688 17.6836V17.3145C73.9688 16.541 73.8926 15.8145 73.7402 15.1348C73.5996 14.4434 73.3711 13.834 73.0547 13.3066C72.75 12.7676 72.3457 12.3457 71.8418 12.041C71.3379 11.7363 70.7285 11.584 70.0137 11.584C69.2988 11.584 68.6895 11.7363 68.1855 12.041C67.6934 12.3457 67.2891 12.7676 66.9727 13.3066C66.668 13.834 66.4453 14.4434 66.3047 15.1348C66.1641 15.8145 66.0938 16.541 66.0938 17.3145ZM92.4434 21.7441C92.4434 21.3809 92.3379 21.0527 92.127 20.7598C91.916 20.4668 91.5234 20.1973 90.9492 19.9512C90.3867 19.6934 89.5723 19.459 88.5059 19.248C87.5449 19.0371 86.6484 18.7734 85.8164 18.457C84.9961 18.1289 84.2812 17.7363 83.6719 17.2793C83.0742 16.8223 82.6055 16.2832 82.2656 15.6621C81.9258 15.0293 81.7559 14.3086 81.7559 13.5C81.7559 12.7031 81.9258 11.9531 82.2656 11.25C82.6172 10.5469 83.1152 9.92578 83.7598 9.38672C84.416 8.83594 85.2129 8.4082 86.1504 8.10352C87.0996 7.78711 88.166 7.62891 89.3496 7.62891C91.002 7.62891 92.4199 7.89258 93.6035 8.41992C94.7988 8.94727 95.7129 9.67383 96.3457 10.5996C96.9902 11.5137 97.3125 12.5566 97.3125 13.7285H92.25C92.25 13.2363 92.1445 12.7969 91.9336 12.4102C91.7344 12.0117 91.418 11.7012 90.9844 11.4785C90.5625 11.2441 90.0117 11.127 89.332 11.127C88.7695 11.127 88.2832 11.2266 87.873 11.4258C87.4629 11.6133 87.1465 11.8711 86.9238 12.1992C86.7129 12.5156 86.6074 12.8672 86.6074 13.2539C86.6074 13.5469 86.666 13.8105 86.7832 14.0449C86.9121 14.2676 87.1172 14.4727 87.3984 14.6602C87.6797 14.8477 88.043 15.0234 88.4883 15.1875C88.9453 15.3398 89.5078 15.4805 90.1758 15.6094C91.5469 15.8906 92.7715 16.2598 93.8496 16.7168C94.9277 17.1621 95.7832 17.7715 96.416 18.5449C97.0488 19.3066 97.3652 20.3086 97.3652 21.5508C97.3652 22.3945 97.1777 23.168 96.8027 23.8711C96.4277 24.5742 95.8887 25.1895 95.1855 25.7168C94.4824 26.2324 93.6387 26.6367 92.6543 26.9297C91.6816 27.2109 90.5859 27.3516 89.3672 27.3516C87.5977 27.3516 86.0977 27.0352 84.8672 26.4023C83.6484 25.7695 82.7227 24.9668 82.0898 23.9941C81.4688 23.0098 81.1582 22.002 81.1582 20.9707H85.957C85.9805 21.6621 86.1562 22.2188 86.4844 22.6406C86.8242 23.0625 87.252 23.3672 87.7676 23.5547C88.2949 23.7422 88.8633 23.8359 89.4727 23.8359C90.1289 23.8359 90.6738 23.748 91.1074 23.5723C91.541 23.3848 91.8691 23.1387 92.0918 22.834C92.3262 22.5176 92.4434 22.1543 92.4434 21.7441Z" fill="#7A8DFD"/>
</svg>
